<svg width="32" height="32" viewBox="0 0 32 32" fill="none" xmlns="http://www.w3.org/2000/svg">
  <defs>
    <linearGradient id="altGradient" x1="0%" y1="0%" x2="100%" y2="100%">
      <stop offset="0%" style="stop-color:#6366F1;stop-opacity:1" />
      <stop offset="50%" style="stop-color:#3B82F6;stop-opacity:1" />
      <stop offset="100%" style="stop-color:#06B6D4;stop-opacity:1" />
    </linearGradient>
    <filter id="glow">
      <feGaussianBlur stdDeviation="2" result="coloredBlur"/>
      <feMerge> 
        <feMergeNode in="coloredBlur"/>
        <feMergeNode in="SourceGraphic"/> 
      </feMerge>
    </filter>
  </defs>
  <circle cx="16" cy="16" r="16" fill="url(#altGradient)"/>
  <g filter="url(#glow)">
    <path d="M12 8C10.8954 8 10 8.89543 10 10V12C10 13.1046 10.8954 14 12 14H20C21.1046 14 22 13.1046 22 12V10C22 8.89543 21.1046 8 20 8H12Z" fill="white" fill-opacity="0.95"/>
    <path d="M10 16C10 14.8954 10.8954 14 12 14H16C17.1046 14 18 14.8954 18 16V18C18 19.1046 17.1046 20 16 20H12C10.8954 20 10 19.1046 10 18V16Z" fill="white" fill-opacity="0.8"/>
    <path d="M20 16C20 14.8954 20.8954 14 22 14C23.1046 14 24 14.8954 24 16V22C24 23.1046 23.1046 24 22 24C20.8954 24 20 23.1046 20 22V16Z" fill="white" fill-opacity="0.7"/>
    <text x="16" y="12" text-anchor="middle" fill="url(#altGradient)" font-family="Inter, sans-serif" font-weight="bold" font-size="6">S</text>
  </g>
</svg>